<mxfile host="app.diagrams.net" modified="2024-05-26T15:38:39.095Z" agent="Mozilla/5.0 (Macintosh; Intel Mac OS X 10_15_7) AppleWebKit/537.36 (KHTML, like Gecko) Chrome/125.0.0.0 Safari/537.36" etag="oAFFZIQu9-kemlQoOzQl" version="24.4.8" type="github">
  <diagram name="Page-1" id="5f0bae14-7c28-e335-631c-24af17079c00">
    <mxGraphModel dx="954" dy="640" grid="1" gridSize="10" guides="1" tooltips="1" connect="1" arrows="1" fold="1" page="1" pageScale="1" pageWidth="1100" pageHeight="850" background="none" math="0" shadow="0">
      <root>
        <mxCell id="0" />
        <mxCell id="1" parent="0" />
        <mxCell id="rwvvYyufdUPmZqH8niaR-12" value="Buy/Sell" style="text;html=1;align=center;verticalAlign=middle;whiteSpace=wrap;rounded=0;fontStyle=3;fontSize=16;" vertex="1" parent="1">
          <mxGeometry x="394" width="160" height="80" as="geometry" />
        </mxCell>
        <mxCell id="rwvvYyufdUPmZqH8niaR-24" value="" style="image;aspect=fixed;html=1;points=[];align=center;fontSize=12;image=img/lib/azure2/compute/Azure_Spring_Cloud.svg;" vertex="1" parent="1">
          <mxGeometry x="404" y="50" width="140" height="140" as="geometry" />
        </mxCell>
        <mxCell id="rwvvYyufdUPmZqH8niaR-25" value="" style="image;aspect=fixed;html=1;points=[];align=center;fontSize=12;image=img/lib/azure2/compute/Azure_Spring_Cloud.svg;" vertex="1" parent="1">
          <mxGeometry x="690" y="380" width="140" height="140" as="geometry" />
        </mxCell>
        <mxCell id="rwvvYyufdUPmZqH8niaR-26" value="" style="image;aspect=fixed;html=1;points=[];align=center;fontSize=12;image=img/lib/azure2/compute/Azure_Spring_Cloud.svg;" vertex="1" parent="1">
          <mxGeometry x="110" y="390" width="140" height="140" as="geometry" />
        </mxCell>
        <mxCell id="rwvvYyufdUPmZqH8niaR-27" value="Chart Analyser" style="text;html=1;align=center;verticalAlign=middle;whiteSpace=wrap;rounded=0;fontStyle=3;fontSize=16;" vertex="1" parent="1">
          <mxGeometry x="680" y="320" width="160" height="80" as="geometry" />
        </mxCell>
        <mxCell id="rwvvYyufdUPmZqH8niaR-28" value="Market Analyser" style="text;html=1;align=center;verticalAlign=middle;whiteSpace=wrap;rounded=0;fontStyle=3;fontSize=16;" vertex="1" parent="1">
          <mxGeometry x="100" y="330" width="160" height="80" as="geometry" />
        </mxCell>
        <mxCell id="rwvvYyufdUPmZqH8niaR-30" value="Mongodb" style="sketch=0;points=[[0,0,0],[0.25,0,0],[0.5,0,0],[0.75,0,0],[1,0,0],[0,1,0],[0.25,1,0],[0.5,1,0],[0.75,1,0],[1,1,0],[0,0.25,0],[0,0.5,0],[0,0.75,0],[1,0.25,0],[1,0.5,0],[1,0.75,0]];outlineConnect=0;fontColor=#232F3E;fillColor=#C925D1;strokeColor=#ffffff;dashed=0;verticalLabelPosition=bottom;verticalAlign=top;align=center;html=1;fontSize=12;fontStyle=0;aspect=fixed;shape=mxgraph.aws4.resourceIcon;resIcon=mxgraph.aws4.documentdb_with_mongodb_compatibility;" vertex="1" parent="1">
          <mxGeometry x="435" y="280" width="78" height="78" as="geometry" />
        </mxCell>
        <mxCell id="rwvvYyufdUPmZqH8niaR-31" value="&lt;a style=&quot;font-size: 22px;&quot; href=&quot;https://github.com/nithintdeveloper/trading-experimental&quot;&gt;trading-experimental&amp;nbsp;&lt;/a&gt;" style="text;html=1;align=center;verticalAlign=middle;whiteSpace=wrap;rounded=0;fontStyle=1;fontSize=22;fontFamily=Times New Roman;" vertex="1" parent="1">
          <mxGeometry x="70" y="530" width="220" height="30" as="geometry" />
        </mxCell>
        <mxCell id="rwvvYyufdUPmZqH8niaR-32" value="&lt;h3 style=&quot;box-sizing: border-box; margin-top: 0px; margin-bottom: 0px; font-size: var(--h3-size, 20px); font-weight: var(--base-text-weight-semibold, 600); color: rgb(31, 35, 40); font-family: -apple-system, &amp;quot;system-ui&amp;quot;, &amp;quot;Segoe UI&amp;quot;, &amp;quot;Noto Sans&amp;quot;, Helvetica, Arial, sans-serif, &amp;quot;Apple Color Emoji&amp;quot;, &amp;quot;Segoe UI Emoji&amp;quot;; text-align: left; background-color: rgb(255, 255, 255); word-break: break-all !important;&quot; class=&quot;wb-break-all&quot;&gt;&lt;span style=&quot;box-sizing: border-box;&quot;&gt;&lt;a href=&quot;https://github.com/nithintdeveloper/trading-chart-analyser&quot;&gt;trading-chart-analyser&lt;/a&gt;&lt;/span&gt;&lt;/h3&gt;" style="text;html=1;align=center;verticalAlign=middle;whiteSpace=wrap;rounded=0;fontStyle=1;fontSize=16;fontFamily=Times New Roman;" vertex="1" parent="1">
          <mxGeometry x="660" y="530" width="220" height="20" as="geometry" />
        </mxCell>
        <mxCell id="rwvvYyufdUPmZqH8niaR-33" value="&lt;h3 style=&quot;box-sizing: border-box; margin-top: 0px; margin-bottom: 0px; font-size: var(--h3-size, 20px); font-weight: var(--base-text-weight-semibold, 600); color: rgb(31, 35, 40); font-family: -apple-system, &amp;quot;system-ui&amp;quot;, &amp;quot;Segoe UI&amp;quot;, &amp;quot;Noto Sans&amp;quot;, Helvetica, Arial, sans-serif, &amp;quot;Apple Color Emoji&amp;quot;, &amp;quot;Segoe UI Emoji&amp;quot;; text-align: left; background-color: rgb(255, 255, 255); word-break: break-all !important;&quot; class=&quot;wb-break-all&quot;&gt;&lt;span style=&quot;box-sizing: border-box;&quot;&gt;&lt;a href=&quot;https://github.com/nithintdeveloper/tradingV2&quot;&gt;tradingV2&lt;/a&gt;&lt;/span&gt;&lt;/h3&gt;" style="text;html=1;align=center;verticalAlign=middle;whiteSpace=wrap;rounded=0;fontStyle=1;fontSize=22;fontFamily=Times New Roman;" vertex="1" parent="1">
          <mxGeometry x="370" y="190" width="220" height="30" as="geometry" />
        </mxCell>
        <mxCell id="rwvvYyufdUPmZqH8niaR-39" value="" style="shape=flexArrow;endArrow=classic;html=1;rounded=0;exitX=1;exitY=0.5;exitDx=0;exitDy=0;exitPerimeter=0;" edge="1" parent="1">
          <mxGeometry width="50" height="50" relative="1" as="geometry">
            <mxPoint x="523" y="350" as="sourcePoint" />
            <mxPoint x="690" y="441" as="targetPoint" />
          </mxGeometry>
        </mxCell>
        <mxCell id="rwvvYyufdUPmZqH8niaR-40" value="" style="shape=flexArrow;endArrow=classic;html=1;rounded=0;" edge="1" parent="1">
          <mxGeometry width="50" height="50" relative="1" as="geometry">
            <mxPoint x="260" y="450" as="sourcePoint" />
            <mxPoint x="430" y="340" as="targetPoint" />
          </mxGeometry>
        </mxCell>
        <mxCell id="rwvvYyufdUPmZqH8niaR-44" value="" style="endArrow=classic;html=1;rounded=0;" edge="1" parent="1">
          <mxGeometry width="50" height="50" relative="1" as="geometry">
            <mxPoint x="170" y="344" as="sourcePoint" />
            <mxPoint x="400" y="120" as="targetPoint" />
          </mxGeometry>
        </mxCell>
        <mxCell id="rwvvYyufdUPmZqH8niaR-45" value="" style="endArrow=classic;html=1;rounded=0;" edge="1" parent="1">
          <mxGeometry width="50" height="50" relative="1" as="geometry">
            <mxPoint x="730" y="340" as="sourcePoint" />
            <mxPoint x="550" y="96" as="targetPoint" />
          </mxGeometry>
        </mxCell>
        <mxCell id="rwvvYyufdUPmZqH8niaR-46" value="&lt;b&gt;&lt;font style=&quot;font-size: 14px;&quot;&gt;Orders&lt;/font&gt;&lt;/b&gt;" style="text;html=1;align=center;verticalAlign=middle;whiteSpace=wrap;rounded=0;" vertex="1" parent="1">
          <mxGeometry x="230" y="210" width="60" height="30" as="geometry" />
        </mxCell>
        <mxCell id="rwvvYyufdUPmZqH8niaR-47" value="&lt;b&gt;&lt;font style=&quot;font-size: 14px;&quot;&gt;Orders&lt;/font&gt;&lt;/b&gt;" style="text;html=1;align=center;verticalAlign=middle;whiteSpace=wrap;rounded=0;" vertex="1" parent="1">
          <mxGeometry x="640" y="210" width="60" height="30" as="geometry" />
        </mxCell>
        <mxCell id="rwvvYyufdUPmZqH8niaR-48" value="" style="endArrow=none;dashed=1;html=1;rounded=0;" edge="1" parent="1">
          <mxGeometry width="50" height="50" relative="1" as="geometry">
            <mxPoint x="474" y="270" as="sourcePoint" />
            <mxPoint x="474" y="190" as="targetPoint" />
          </mxGeometry>
        </mxCell>
      </root>
    </mxGraphModel>
  </diagram>
</mxfile>
